<?xml version="1.0" encoding="UTF-8" standalone="no"?>
<svg xmlns="http://www.w3.org/2000/svg"
     version="1.1"
     width="300"
     height="84">
  
  <g id="graber" fill="#8b8d8e">
    <path d="m 33.055677,20.128333 0,-2.111973 c 0.007,-0.277968 -0.03102,-0.453965 -0.113998,-0.527993 -0.08302,-0.07397 -0.253022,-0.10597 -0.509994,-0.096 l -0.815989,0 c -1.621001,-0.005 -2.962983,0.317024 -4.025948,0.965988 -1.063004,0.649019 -1.912993,1.655005 -2.549967,3.017961 -0.49501,-0.356971 -1.053002,-0.614967 -1.673978,-0.77399 -0.621007,-0.158973 -1.214999,-0.236972 -1.781978,-0.233997 l -2.591967,0 c -2.954969,0.01703 -4.940942,0.715016 -5.957922,2.093974 -1.016991,1.379005 -1.478985,3.336977 -1.385983,5.873923 -0.037,1.810993 0.168995,3.44497 0.617992,4.901937 0.448989,1.456992 1.362977,2.670975 2.741965,3.641953 -1.093993,0.291006 -1.881982,0.740999 -2.363971,1.349983 -0.481999,0.608998 -0.717995,1.21499 -0.70799,1.817977 -0.013,0.750995 0.228994,1.444985 0.725991,2.081972 0.496989,0.636996 1.326977,1.03099 2.489968,1.181986 -1.777982,0.362997 -2.961966,1.052987 -3.551954,2.069973 -0.589996,1.016986 -0.861992,2.342968 -0.81599,3.977949 0.035,2.656959 0.672988,4.470933 1.913976,5.441929 1.240978,0.970977 2.874955,1.428971 4.901936,1.373983 l 7.199908,0 c 2.026955,0.05499 3.660932,-0.403005 4.901936,-1.373983 1.240961,-0.970995 1.878953,-2.78497 1.913976,-5.441929 -0.03502,-2.584969 -0.673014,-4.350945 -1.913975,-5.297933 -1.241005,-0.946985 -2.874982,-1.404978 -4.901937,-1.373981 l -4.319945,-0.048 c -1.687989,0.007 -2.979972,-0.162994 -3.87595,-0.509994 -0.895997,-0.346991 -1.34799,-1.056981 -1.355982,-2.129972 0.04299,-1.058979 0.412987,-1.78497 1.109986,-2.177973 0.696982,-0.392987 1.462971,-0.578984 2.29797,-0.557992 l 3.167959,0.048 c 2.418952,-0.03399 4.060929,-0.841981 4.925936,-2.42397 0.864969,-1.581966 1.270963,-3.44594 1.217985,-5.591927 0.04298,-0.860971 0.02898,-1.778958 -0.042,-2.753965 -0.07102,-0.974967 -0.457014,-2.024953 -1.157986,-3.149959 0.642972,-0.886965 1.396961,-1.548956 2.261971,-1.985975 0.864967,-0.43697 1.726955,-0.654967 2.585967,-0.653991 l 0.815989,0 c 0.256972,0.01003 0.426969,-0.02197 0.509993,-0.096 0.08297,-0.07397 0.120973,-0.249971 0.113999,-0.527993 z m -8.207894,8.207894 c 0.05398,1.583996 -0.114016,2.927977 -0.503994,4.031949 -0.390011,1.103998 -1.325998,1.67999 -2.807963,1.727977 l -3.359957,0 c -1.48199,-0.04799 -2.417977,-0.623979 -2.807965,-1.727977 -0.390002,-1.103972 -0.557999,-2.447953 -0.503992,-4.031949 -0.009,-1.53796 0.248989,-2.697945 0.77399,-3.479955 0.524985,-0.781969 1.370973,-1.173963 2.537967,-1.175985 l 3.215959,0 c 1.235969,0.002 2.123956,0.394017 2.663965,1.175985 0.539976,0.782009 0.803972,1.941994 0.79199,3.479955 z m 3.503955,21.119729 c -0.004,1.048981 -0.260017,1.890969 -0.76799,2.525966 -0.508013,0.634984 -1.388001,0.96098 -2.639966,0.977988 l -7.727901,0 c -1.065993,0.01299 -1.897982,-0.253003 -2.495968,-0.79799 -0.597999,-0.544998 -0.901994,-1.446986 -0.911988,-2.705964 -0.01001,-1.348985 0.237991,-2.298973 0.74399,-2.849965 0.505986,-0.550993 1.329975,-0.816989 2.471969,-0.797989 l 7.919898,0 c 1.173966,-0.028 2.041954,0.219997 2.603966,0.74399 0.561972,0.523992 0.829969,1.491979 0.80399,2.903964 z"/>
    <path d="m 53.920984,30.256203 0,-2.783964 c -0.04802,-2.479948 -0.72001,-4.287922 -2.015974,-5.423931 -1.296,-1.13596 -2.927978,-1.695952 -4.895937,-1.679978 -1.400994,0.007 -2.630977,0.353022 -3.689953,1.037988 -1.058995,0.685015 -1.892984,1.667001 -2.501967,2.945961 -0.256004,-0.660969 -0.512,-1.27096 -0.76799,-1.829976 -0.256003,-0.55897 -0.559999,-1.132962 -0.911988,-1.721979 -0.07101,-0.115973 -0.145006,-0.171973 -0.221999,-0.167998 -0.077,0.004 -0.163002,0.04403 -0.257995,0.119999 L 36.40121,21.95231 c -0.081,0.04302 -0.147002,0.101022 -0.197998,0.173998 -0.051,0.07302 -0.033,0.191021 0.054,0.353995 0.407992,0.667014 0.791986,1.457003 1.151985,2.369969 0.35999,0.913008 0.551988,1.978994 0.575992,3.197959 l 0,17.327777 c -0.007,0.277997 0.031,0.453995 0.113999,0.527993 0.08299,0.074 0.252991,0.105998 0.509993,0.096 l 2.111973,0 c 0.256989,0.01 0.426986,-0.022 0.509993,-0.096 0.08299,-0.074 0.12099,-0.249997 0.113999,-0.527993 l 0,-14.639811 c 0.06199,-2.391953 0.657983,-4.159928 1.787977,-5.303933 1.129975,-1.143963 2.421957,-1.711955 3.87595,-1.703977 1.260969,-0.003 2.170956,0.303018 2.729965,0.917988 0.558976,0.615014 0.832972,1.557 0.82199,2.825964 l 0,2.783964 c -0.007,0.278012 0.03098,0.45401 0.113998,0.527993 0.08298,0.07401 0.252979,0.106013 0.509993,0.096 l 2.111973,0 c 0.256976,0.01001 0.426973,-0.02199 0.509993,-0.096 0.08298,-0.07398 0.120978,-0.249982 0.113999,-0.527993 z"/>
    <path d="M 77.136694,45.520006 C 76.563678,44.579019 76.065684,43.545033 75.642713,42.418045 75.219697,41.291064 74.9977,40.101081 74.976722,38.848092 l 0,-10.84786 c -0.04502,-2.814944 -0.831011,-4.792917 -2.357971,-5.933925 -1.526998,-1.14096 -3.52497,-1.690952 -5.993922,-1.649978 -1.424994,0.005 -2.798975,0.211023 -4.121947,0.617993 -1.322991,0.407019 -2.540974,0.985011 -3.653953,1.733977 -0.184003,0.136021 -0.272002,0.248019 -0.263997,0.335996 0.008,0.08802 0.06399,0.20002 0.167999,0.335995 l 1.48798,2.111973 c 0.08799,0.140018 0.163992,0.208017 0.227998,0.203997 0.06399,-0.004 0.163991,-0.05598 0.299996,-0.155997 1.032978,-0.726971 2.074963,-1.216964 3.125959,-1.469983 1.050975,-0.252974 1.960962,-0.370972 2.729965,-0.353994 1.95096,-0.007 3.280941,0.331018 3.989949,1.013987 0.708973,0.683012 1.042968,1.752997 1.001987,3.209959 l 0,3.215958 -5.759926,0 c -3.339966,0.01601 -5.695934,0.692006 -7.06791,2.027974 -1.371986,1.335994 -2.023977,3.235968 -1.955974,5.699927 -0.041,2.415973 0.628988,4.279947 2.009975,5.591927 1.380975,1.311983 3.718943,1.975974 7.013909,1.991975 1.522967,0.005 2.78495,-0.316997 3.785952,-0.965988 1.00097,-0.648991 1.818958,-1.654977 2.453968,-3.017961 0.232977,0.636995 0.450974,1.186987 0.65399,1.649979 0.202979,0.462995 0.432976,0.904989 0.689993,1.325983 0.111978,0.187998 0.223976,0.315997 0.335995,0.383995 0.111978,0.068 0.271976,0.1 0.479994,0.096 l 2.639966,0 c 0.213973,0.004 0.337972,-0.028 0.371995,-0.096 0.03398,-0.068 -0.01002,-0.195998 -0.131998,-0.383995 z m -5.567928,-9.359879 c -0.08802,2.391976 -0.740008,4.159951 -1.955975,5.303931 -1.216,1.143988 -2.467983,1.711981 -3.755952,1.703978 -1.957986,0.025 -3.393966,-0.276993 -4.307945,-0.905988 -0.913995,-0.628987 -1.365989,-1.734972 -1.355982,-3.317957 -0.009,-1.651971 0.440987,-2.799955 1.349983,-3.443957 0.90898,-0.64398 2.33096,-0.951975 4.265945,-0.923987 l 5.759926,0 z"/>
    <path d="m 101.54645,37.072115 0,-7.199907 c -0.035,-3.370937 -0.86501,-5.784904 -2.489968,-7.241907 -1.624999,-1.456957 -3.834968,-2.178947 -6.629915,-2.165972 -0.890001,-0.02197 -1.845988,0.118024 -2.867963,0.419995 -1.021998,0.302021 -1.953985,0.898013 -2.795964,1.787976 l 0,-9.26388 c 0.007,-0.277964 -0.03101,-0.453961 -0.113999,-0.527994 -0.08301,-0.07397 -0.253005,-0.105965 -0.509993,-0.096 l -2.111973,0 c -0.257002,-0.01 -0.427,0.02203 -0.509994,0.096 -0.08301,0.07403 -0.121004,0.250029 -0.113998,0.527994 l 0,25.439672 c -0.007,1.22699 -0.149003,2.348975 -0.425994,3.365957 -0.277001,1.01699 -0.646996,2.054976 -1.109986,3.11396 -0.08,0.237997 -0.112002,0.409995 -0.096,0.515993 C 81.7867,45.950001 81.898699,46.002 82.1067,46 l 2.639966,0 c 0.166991,0.006 0.300989,-0.018 0.401994,-0.072 0.100992,-0.054 0.174991,-0.173997 0.221998,-0.359994 0.160991,-0.419995 0.306989,-0.827989 0.437994,-1.223985 0.13099,-0.395993 0.288988,-0.995984 0.473994,-1.799977 0.663982,1.362984 1.53197,2.36897 2.603967,3.017961 1.071975,0.648992 2.251958,0.970988 3.539954,0.965988 2.794947,0.035 5.004916,-0.68299 6.629914,-2.153972 1.624959,-1.470978 2.454949,-3.904944 2.489969,-7.301906 z m -3.311958,0 c -0.01102,2.313977 -0.517012,3.925955 -1.517981,4.835938 -1.001005,0.909991 -2.430985,1.345985 -4.289944,1.307983 -1.283997,0.006 -2.51998,-0.569989 -3.707954,-1.727978 -1.187994,-1.15798 -1.823985,-2.933955 -1.907974,-5.327931 l 0,-6.527916 c -0.02701,-1.690961 0.386987,-3.072942 1.241985,-4.145948 0.854978,-1.072965 2.312958,-1.626956 4.373943,-1.661977 1.921959,-0.03898 3.369939,0.387018 4.343943,1.277984 0.973968,0.891008 1.461961,2.480986 1.463982,4.769938 z"/>
    <path d="m 126.19548,34.000154 0,-5.999922 c 0.024,-2.583947 -0.68402,-4.495921 -2.12398,-5.735927 -1.44,-1.239959 -3.75596,-1.85595 -6.94791,-1.847976 -3.19197,-0.008 -5.50793,0.608017 -6.94791,1.847976 -1.43998,1.240006 -2.14797,3.15198 -2.12397,5.735927 l 0,10.943859 c -0.002,2.583971 0.69799,4.495944 2.09997,5.735925 1.40198,1.239984 3.51795,1.855976 6.34792,1.847977 l 2.68797,0 c 1.15397,-0.003 2.22995,-0.164999 3.22795,-0.485995 0.99797,-0.320996 1.90596,-0.782989 2.72397,-1.385981 0.092,-0.068 0.13598,-0.123998 0.132,-0.167998 -0.004,-0.044 -0.032,-0.1 -0.084,-0.167997 l -1.67998,-2.399969 c -0.088,-0.135995 -0.20002,-0.151995 -0.336,-0.048 -0.57701,0.452997 -1.199,0.782992 -1.86597,0.989986 -0.66701,0.207001 -1.373,0.309 -2.11797,0.305997 l -2.68797,0 c -2.07898,0.007 -3.45296,-0.330992 -4.12195,-1.013988 -0.669,-0.682987 -0.97499,-1.752972 -0.91798,-3.209957 l 0,-4.367944 14.06381,0 c 0.27998,0.01201 0.46398,-0.01199 0.552,-0.072 0.088,-0.05999 0.12797,-0.227986 0.12,-0.503993 z m -3.35996,-2.783964 -11.42385,0 0,-3.215958 c -0.053,-1.542961 0.31698,-2.644946 1.10998,-3.305958 0.79298,-0.66097 2.32696,-0.982965 4.60194,-0.965987 2.27496,-0.01698 3.80894,0.305018 4.60194,0.965988 0.79298,0.661012 1.16297,1.762996 1.10999,3.305957 z"/>
    <path d="m 149.62724,30.256203 0,-2.783964 c -0.048,-2.479948 -0.72001,-4.287922 -2.01598,-5.423931 -1.296,-1.13596 -2.92797,-1.695952 -4.89593,-1.679978 -1.401,0.007 -2.63098,0.353022 -3.68996,1.037988 -1.05899,0.685015 -1.89298,1.667001 -2.50196,2.945961 -0.25601,-0.660969 -0.512,-1.27096 -0.76799,-1.829976 -0.25601,-0.55897 -0.56,-1.132962 -0.91199,-1.721979 -0.071,-0.115973 -0.14501,-0.171973 -0.222,-0.167998 -0.077,0.004 -0.163,0.04403 -0.258,0.119999 l -2.25597,1.199985 c -0.081,0.04302 -0.147,0.101022 -0.19799,0.173998 -0.051,0.07302 -0.033,0.191021 0.054,0.353995 0.408,0.667014 0.79199,1.457003 1.15199,2.369969 0.35999,0.913008 0.55199,1.978994 0.57599,3.197959 l 0,17.327777 c -0.007,0.277997 0.031,0.453995 0.114,0.527993 0.083,0.074 0.25299,0.105998 0.50999,0.096 l 2.11198,0 c 0.25699,0.01 0.42698,-0.022 0.50999,-0.096 0.083,-0.074 0.12099,-0.249997 0.114,-0.527993 l 0,-14.639811 c 0.062,-2.391953 0.65798,-4.159928 1.78798,-5.303933 1.12997,-1.143963 2.42195,-1.711955 3.87595,-1.703977 1.26096,-0.003 2.17095,0.303018 2.72996,0.917988 0.55898,0.615014 0.83297,1.557 0.82199,2.825964 l 0,2.783964 c -0.007,0.278012 0.031,0.45401 0.114,0.527993 0.083,0.07401 0.25298,0.106013 0.50999,0.096 l 2.11198,0 c 0.25697,0.01001 0.42697,-0.02199 0.50999,-0.096 0.083,-0.07398 0.12098,-0.249982 0.114,-0.527993 z"/>
  </g>
  
  <g id="paren" fill="#ff6e00">
    <path d="m 180.95983,30.016206 0,-1.631979 c 9.9e-4,-0.266979 -0.049,-0.476976 -0.15,-0.629992 -0.10101,-0.15298 -0.25901,-0.230979 -0.47399,-0.233997 l -0.38399,0 c -1.269,-0.007 -2.05499,-0.364977 -2.35797,-1.073987 -0.30301,-0.70897 -0.42901,-1.726956 -0.378,-3.05396 l 0,-9.503878 c 0.031,-2.06894 -0.547,-3.870915 -1.73398,-5.405931 -1.18699,-1.5349408 -3.16896,-2.3409293 -5.94592,-2.4179678 l -0.47999,0 c -0.257,-0.00996 -0.427,0.02204 -0.51,0.095999 -0.083,0.074038 -0.121,0.2500358 -0.114,0.5279932 l 0,2.1119728 c -0.007,0.278034 0.031,0.4540315 0.114,0.5279932 0.083,0.074035 0.253,0.1060346 0.51,0.095999 l 0.47999,0 c 1.37698,-0.00896 2.43896,0.345032 3.18596,1.0619876 0.74698,0.717025 1.12498,1.851009 1.13398,3.401955 l 0,11.183856 c -0.018,1.078006 0.174,1.993993 0.576,2.747965 0.40199,0.754008 1.12198,1.214002 2.15997,1.379982 -1.03799,0.212014 -1.75798,0.700007 -2.15997,1.463981 -0.402,0.764004 -0.594,1.683992 -0.576,2.759965 l 0,12.43184 c -0.009,1.550978 -0.387,2.684961 -1.13398,3.401955 -0.747,0.716988 -1.80898,1.070983 -3.18596,1.061986 l -0.47999,0 c -0.257,-0.01 -0.427,0.022 -0.51,0.096 -0.083,0.07399 -0.121,0.249992 -0.114,0.527993 l 0,2.111973 c -0.007,0.27799 0.031,0.453987 0.114,0.527993 0.083,0.07399 0.253,0.105991 0.51,0.096 l 0.47999,0 c 2.77696,-0.07701 4.75893,-0.882995 5.94592,-2.417969 1.18698,-1.534985 1.76497,-3.336959 1.73398,-5.40593 l 0,-10.84786 c -0.051,-1.326971 0.075,-2.344957 0.378,-3.053961 0.30298,-0.708978 1.08897,-1.066971 2.35797,-1.073985 l 0.38399,0 c 0.21499,-0.003 0.37298,-0.08098 0.47399,-0.233997 0.10099,-0.152983 0.15099,-0.36298 0.15,-0.629993 z"/>
  </g>
  
  <g id="ingenieurbuero" fill="#8b8d8e">
    <path d="m 40.801938,75.818002 0,-0.615992 c 0.002,-0.08108 -0.009,-0.132414 -0.03325,-0.153998 -0.02421,-0.02158 -0.07379,-0.03091 -0.148747,-0.028 l -1.315984,0 0,-7.727901 1.315984,0 c 0.07495,0.0029 0.124535,-0.0064 0.148747,-0.028 0.0242,-0.02157 0.03529,-0.07291 0.03325,-0.153998 l 0,-0.615992 c 0.002,-0.08107 -0.009,-0.132405 -0.03325,-0.153998 -0.02421,-0.02157 -0.07379,-0.03091 -0.148747,-0.028 l -3.583954,0 c -0.07496,-0.0029 -0.124542,0.0064 -0.148749,0.028 -0.02421,0.02159 -0.03529,0.07293 -0.03325,0.153998 l 0,0.615992 c -0.002,0.08109 0.009,0.132424 0.03325,0.153998 0.02421,0.02159 0.07379,0.03092 0.148749,0.028 l 1.287983,0 0,7.727901 -1.287983,0 c -0.07496,-0.0029 -0.124542,0.0064 -0.148749,0.028 -0.02421,0.02158 -0.03529,0.07292 -0.03325,0.153998 l 0,0.615992 c -0.002,0.08108 0.009,0.132416 0.03325,0.153998 0.02421,0.02158 0.07379,0.03092 0.148749,0.028 l 3.583954,0 c 0.07495,0.0029 0.124535,-0.0064 0.148747,-0.028 0.0242,-0.02158 0.03529,-0.07291 0.03325,-0.153998 z"/>
    <path d="m 48.408725,75.818002 0,-4.521941 c -0.01021,-0.990774 -0.252294,-1.700681 -0.72624,-2.129723 -0.473958,-0.429029 -1.118533,-0.638443 -1.933725,-0.628242 -0.443915,-0.0055 -0.798577,0.08605 -1.063987,0.274747 -0.265416,0.188713 -0.508079,0.507792 -0.72799,0.957237 -0.05629,-0.223115 -0.125709,-0.431363 -0.208248,-0.624742 -0.08254,-0.193365 -0.176458,-0.377113 -0.281746,-0.551243 -0.02071,-0.03382 -0.04229,-0.05016 -0.06475,-0.049 -0.02246,0.0012 -0.04754,0.01284 -0.07525,0.035 l -0.657992,0.349995 c -0.02333,0.01255 -0.04317,0.02947 -0.0595,0.05075 -0.01633,0.0213 -0.01517,0.05572 0.0035,0.103249 0.118414,0.194546 0.228079,0.424959 0.328995,0.691241 0.100914,0.266294 0.15458,0.577207 0.160999,0.932738 l 0,5.109934 c -0.002,0.08108 0.009,0.132416 0.03325,0.153998 0.02421,0.02158 0.07379,0.03092 0.148748,0.028 l 0.615992,0 c 0.07496,0.0029 0.124538,-0.0064 0.148748,-0.028 0.02421,-0.02158 0.03529,-0.07291 0.03325,-0.153998 l 0,-4.255945 c 0.02304,-0.697653 0.207953,-1.213312 0.554743,-1.54698 0.346784,-0.333656 0.717195,-0.499321 1.111236,-0.496994 0.560571,-0.01166 0.982898,0.113172 1.266983,0.374496 0.284074,0.261336 0.426405,0.729162 0.426995,1.403482 l 0,4.521941 c -0.002,0.08108 0.009,0.132416 0.03325,0.153998 0.0242,0.02158 0.07378,0.03092 0.148748,0.028 l 0.601993,0 c 0.07495,0.0029 0.124533,-0.0064 0.148747,-0.028 0.0242,-0.02158 0.03529,-0.07291 0.03325,-0.153998 z"/>
    <path d="m 56.979781,68.454097 0,-0.615992 c 0.002,-0.08107 -0.009,-0.132406 -0.03325,-0.153998 -0.02421,-0.02157 -0.0738,-0.03091 -0.148748,-0.028 l -0.237997,0 c -0.472792,-0.0015 -0.864203,0.09247 -1.174234,0.281747 -0.310043,0.189297 -0.557957,0.48271 -0.743741,0.880238 -0.144378,-0.104116 -0.307126,-0.179365 -0.488244,-0.225747 -0.181127,-0.04637 -0.354374,-0.06912 -0.519743,-0.06825 l -0.75599,0 c -0.861866,0.005 -1.441108,0.208547 -1.737728,0.610743 -0.296622,0.402209 -0.43137,0.973285 -0.404245,1.713227 -0.01079,0.528207 0.04929,1.004783 0.180248,1.429732 0.130955,0.424956 0.397535,0.779034 0.79974,1.062236 -0.319081,0.08488 -0.548912,0.216125 -0.689492,0.393745 -0.140583,0.177625 -0.209415,0.354372 -0.206497,0.530243 -0.0038,0.219041 0.06679,0.421454 0.211748,0.607242 0.144955,0.185791 0.387034,0.300706 0.72624,0.344746 -0.518578,0.105874 -0.863907,0.307122 -1.035987,0.603742 -0.172082,0.296621 -0.251414,0.683366 -0.237996,1.160235 0.01021,0.774947 0.196288,1.304023 0.558242,1.58723 0.361952,0.283201 0.838529,0.416783 1.429732,0.400745 l 2.099973,0 c 0.591195,0.01604 1.067772,-0.117543 1.429731,-0.400745 0.361947,-0.283207 0.548028,-0.812283 0.558243,-1.58723 -0.01022,-0.753949 -0.196295,-1.269025 -0.558242,-1.54523 -0.36196,-0.276204 -0.838537,-0.409785 -1.429732,-0.400745 l -1.259984,-0.014 c -0.49233,0.002 -0.869158,-0.04754 -1.130486,-0.148749 -0.261332,-0.101205 -0.393163,-0.308286 -0.395494,-0.621241 0.01254,-0.30887 0.120454,-0.520617 0.323746,-0.635243 0.203286,-0.114621 0.4267,-0.16887 0.670241,-0.162747 l 0.923988,0.014 c 0.705528,-0.0099 1.184438,-0.245578 1.436731,-0.706991 0.252283,-0.461407 0.370698,-1.005066 0.355246,-1.630979 0.01254,-0.251117 0.0085,-0.518863 -0.01225,-0.80324 -0.02071,-0.284366 -0.133296,-0.590611 -0.337745,-0.918738 0.187533,-0.258698 0.407447,-0.451779 0.659741,-0.579243 0.252282,-0.12745 0.503695,-0.191032 0.75424,-0.190747 l 0.237997,0 c 0.07495,0.0029 0.124533,-0.0064 0.148748,-0.028 0.0242,-0.02158 0.03528,-0.07291 0.03325,-0.153998 z m -2.393969,2.393969 c 0.01574,0.461999 -0.03325,0.853994 -0.146999,1.175985 -0.113753,0.322 -0.386749,0.489997 -0.818989,0.503994 l -0.979987,0 c -0.432247,-0.014 -0.705244,-0.181994 -0.81899,-0.503994 -0.11375,-0.321991 -0.16275,-0.713986 -0.146998,-1.175985 -0.0026,-0.448572 0.07262,-0.7869 0.225747,-1.014987 0.153121,-0.228074 0.399868,-0.342406 0.740241,-0.342995 l 0.937988,0 c 0.360491,5.9e-4 0.619487,0.114921 0.776989,0.342995 0.157494,0.228086 0.234493,0.566415 0.230998,1.014987 z m 1.021987,6.159921 c -0.0012,0.305953 -0.07584,0.551533 -0.223998,0.73674 -0.14817,0.185204 -0.404833,0.280286 -0.76999,0.285247 l -2.253971,0 c -0.310914,0.0038 -0.553578,-0.07379 -0.72799,-0.232747 -0.174417,-0.158958 -0.263082,-0.422038 -0.265997,-0.78924 -0.0029,-0.393454 0.06941,-0.670534 0.216997,-0.83124 0.14758,-0.160706 0.38791,-0.238288 0.720991,-0.232746 l 2.30997,0 c 0.342407,-0.0082 0.59557,0.06417 0.75949,0.216997 0.163909,0.152831 0.242075,0.43516 0.234498,0.846989 z" />
    <path d="m 63.477325,72.500045 0,-1.749977 c 0.007,-0.753652 -0.199503,-1.311311 -0.619492,-1.672979 -0.42,-0.361655 -1.09549,-0.541319 -2.026474,-0.538993 -0.93099,-0.0023 -1.606481,0.177338 -2.026474,0.538993 -0.419996,0.361668 -0.626493,0.919327 -0.619492,1.672979 l 0,3.191958 c -5.84e-4,0.753659 0.20358,1.311317 0.612493,1.672979 0.408909,0.361662 1.026067,0.541326 1.851476,0.538993 l 0.78399,0 c 0.336574,-8.75e-4 0.650403,-0.04812 0.941488,-0.141748 0.291074,-0.09362 0.555903,-0.228372 0.794489,-0.404245 0.02683,-0.01983 0.03966,-0.03617 0.0385,-0.049 -0.0012,-0.01283 -0.0093,-0.02917 -0.0245,-0.049 l -0.489994,-0.699991 c -0.02567,-0.03967 -0.05834,-0.04433 -0.098,-0.014 -0.168295,0.132124 -0.349709,0.228372 -0.544243,0.288745 -0.194544,0.06038 -0.400458,0.09013 -0.617742,0.08925 l -0.78399,0 c -0.60637,0.002 -1.007115,-0.09654 -1.202235,-0.295747 C 59.252,74.679057 59.162752,74.366979 59.179379,73.942024 l 0,-1.273983 4.101947,0 c 0.08166,0.0035 0.135325,-0.0035 0.160998,-0.021 0.02566,-0.0175 0.03733,-0.0665 0.035,-0.146998 z m -0.979987,-0.811989 -3.331957,0 0,-0.937988 c -0.01546,-0.450031 0.09246,-0.771443 0.323746,-0.964238 0.231286,-0.192783 0.678696,-0.286698 1.342232,-0.281746 0.663529,-0.005 1.110939,0.08896 1.342233,0.281746 0.231284,0.192795 0.339199,0.514207 0.323746,0.964238 z"/>
    <path d="m 71.213413,75.818002 0,-4.521941 c -0.01022,-0.990774 -0.252295,-1.700681 -0.726241,-2.129723 -0.473958,-0.429029 -1.118532,-0.638443 -1.933725,-0.628242 -0.443915,-0.0055 -0.798576,0.08605 -1.063986,0.274747 -0.265416,0.188713 -0.50808,0.507792 -0.727991,0.957237 -0.05629,-0.223115 -0.125709,-0.431363 -0.208247,-0.624742 -0.08254,-0.193365 -0.176458,-0.377113 -0.281747,-0.551243 -0.02071,-0.03382 -0.04229,-0.05016 -0.06475,-0.049 -0.02246,0.0012 -0.04754,0.01284 -0.07525,0.035 l -0.657991,0.349995 c -0.02334,0.01255 -0.04317,0.02947 -0.0595,0.05075 -0.01633,0.0213 -0.01517,0.05572 0.0035,0.103249 0.118414,0.194546 0.228079,0.424959 0.328996,0.691241 0.100914,0.266294 0.15458,0.577207 0.160998,0.932738 l 0,5.109934 c -0.002,0.08108 0.009,0.132416 0.03325,0.153998 0.02421,0.02158 0.07379,0.03092 0.148748,0.028 l 0.615992,0 c 0.07496,0.0029 0.124537,-0.0064 0.148748,-0.028 0.0242,-0.02158 0.03529,-0.07291 0.03325,-0.153998 l 0,-4.255945 c 0.02304,-0.697653 0.207954,-1.213312 0.554744,-1.54698 0.346784,-0.333656 0.717195,-0.499321 1.111235,-0.496994 0.560571,-0.01166 0.982899,0.113172 1.266983,0.374496 0.284074,0.261336 0.426406,0.729162 0.426995,1.403482 l 0,4.521941 c -0.002,0.08108 0.009,0.132416 0.03325,0.153998 0.0242,0.02158 0.07378,0.03092 0.148748,0.028 l 0.601992,0 c 0.07495,0.0029 0.124533,-0.0064 0.148748,-0.028 0.0242,-0.02158 0.03528,-0.07291 0.03325,-0.153998 z"/>
    <path d="m 76.326513,66.71812 c -0.0058,-0.23653 -0.08517,-0.431944 -0.237997,-0.586243 -0.152835,-0.15428 -0.344166,-0.234195 -0.573993,-0.239747 -0.248208,0.0073 -0.444788,0.09072 -0.589742,0.250247 -0.144959,0.159549 -0.219041,0.351463 -0.222247,0.575743 0.0058,0.24938 0.08516,0.450628 0.237997,0.603742 0.152828,0.153131 0.344159,0.23188 0.573992,0.236247 0.248202,-0.007 0.444783,-0.09099 0.589743,-0.251997 0.144952,-0.160989 0.219035,-0.356987 0.222247,-0.587992 z m -0.153998,9.099882 0,-7.013909 c 0.002,-0.08107 -0.009,-0.132408 -0.03325,-0.153998 -0.02421,-0.02158 -0.07379,-0.03091 -0.148748,-0.028 l -3.177959,0 c -0.08108,-0.002 -0.132415,0.009 -0.153998,0.03325 -0.02158,0.02422 -0.03092,0.0738 -0.028,0.148749 l 0,0.615992 c -0.0029,0.07496 0.0064,0.124546 0.028,0.148747 0.02158,0.02421 0.07292,0.0353 0.153998,0.03325 l 2.37997,0 0,6.21592 c -0.002,0.08108 0.009,0.132416 0.03325,0.153998 0.02421,0.02158 0.07379,0.03092 0.148748,0.028 l 0.615992,0 c 0.07495,0.0029 0.124536,-0.0064 0.148748,-0.028 0.0242,-0.02158 0.03529,-0.07291 0.03325,-0.153998 z"/>
    <path d="m 83.985138,72.500045 0,-1.749977 c 0.007,-0.753652 -0.199504,-1.311311 -0.619492,-1.672979 -0.42,-0.361655 -1.095491,-0.541319 -2.026474,-0.538993 -0.930991,-0.0023 -1.606482,0.177338 -2.026474,0.538993 -0.419996,0.361668 -0.626493,0.919327 -0.619492,1.672979 l 0,3.191958 c -5.84e-4,0.753659 0.20358,1.311317 0.612492,1.672979 0.40891,0.361662 1.026068,0.541326 1.851476,0.538993 l 0.78399,0 c 0.336575,-8.75e-4 0.650404,-0.04812 0.941488,-0.141748 0.291074,-0.09362 0.555904,-0.228372 0.79449,-0.404245 0.02683,-0.01983 0.03966,-0.03617 0.0385,-0.049 -0.0012,-0.01283 -0.0093,-0.02917 -0.0245,-0.049 l -0.489994,-0.699991 c -0.02567,-0.03967 -0.05834,-0.04433 -0.098,-0.014 -0.168294,0.132124 -0.349709,0.228372 -0.544243,0.288745 -0.194544,0.06038 -0.400457,0.09013 -0.617742,0.08925 l -0.78399,0 c -0.60637,0.002 -1.007114,-0.09654 -1.202234,-0.295747 -0.195125,-0.199205 -0.284374,-0.511283 -0.267747,-0.936238 l 0,-1.273983 4.101947,0 c 0.08166,0.0035 0.135326,-0.0035 0.160998,-0.021 0.02566,-0.0175 0.03733,-0.0665 0.035,-0.146998 z m -0.979988,-0.811989 -3.331957,0 0,-0.937988 c -0.01546,-0.450031 0.09246,-0.771443 0.323746,-0.964238 0.231287,-0.192783 0.678697,-0.286698 1.342233,-0.281746 0.663529,-0.005 1.110939,0.08896 1.342233,0.281746 0.231283,0.192795 0.339198,0.514207 0.323745,0.964238 z"/>
    <path d="M 91.889223,75.860002 C 91.715385,75.585547 91.566054,75.283968 91.441229,74.955263 91.316391,74.62656 91.251058,74.279482 91.245231,73.914027 l 0,-5.109934 c 0.002,-0.08107 -0.009,-0.132408 -0.03325,-0.153998 -0.02422,-0.02158 -0.0738,-0.03091 -0.148748,-0.028 l -0.615992,0 c -0.07496,-0.0029 -0.124546,0.0064 -0.148749,0.028 -0.02421,0.02159 -0.0353,0.07292 -0.03325,0.153998 l 0,4.325944 c -0.02305,0.69766 -0.207961,1.213319 -0.554743,1.54698 -0.346792,0.333663 -0.717203,0.499328 -1.111236,0.496994 -0.560579,0.01167 -0.982906,-0.113164 -1.266983,-0.374496 -0.28408,-0.261328 -0.426412,-0.729155 -0.426993,-1.403481 l 0,-4.591941 c 0.002,-0.08107 -0.009,-0.132408 -0.03325,-0.153998 -0.02421,-0.02158 -0.07379,-0.03091 -0.148748,-0.028 l -0.601993,0 c -0.07496,-0.0029 -0.124541,0.0064 -0.148748,0.028 -0.02421,0.02159 -0.03529,0.07292 -0.03325,0.153998 l 0,4.591941 c 0.01021,0.99078 0.252287,1.700687 0.72624,2.129722 0.47395,0.429036 1.118525,0.63845 1.933725,0.628242 0.450324,0.0015 0.820152,-0.09246 1.109486,-0.281747 0.289325,-0.189289 0.526155,-0.482701 0.710491,-0.880238 0.06095,0.18579 0.121034,0.346204 0.180248,0.481244 0.0592,0.13504 0.129784,0.263955 0.211747,0.386745 0.03266,0.05483 0.06533,0.09217 0.098,0.111998 0.03266,0.01983 0.07933,0.02917 0.139998,0.028 l 0.76999,0 c 0.06241,0.0012 0.09857,-0.0082 0.108499,-0.028 0.0099,-0.01983 -0.0029,-0.05717 -0.0385,-0.111998 z" />
    <path d="m 98.594141,71.408059 0,-0.811989 c -0.01401,-0.723318 -0.210003,-1.250644 -0.587992,-1.58198 -0.378,-0.331322 -0.853994,-0.494653 -1.427982,-0.489994 -0.408623,0.002 -0.767368,0.102965 -1.076236,0.302747 -0.308874,0.199796 -0.55212,0.486208 -0.729741,0.859238 -0.07467,-0.192782 -0.149333,-0.370696 -0.223997,-0.533743 -0.07467,-0.163032 -0.163333,-0.330447 -0.265996,-0.502243 -0.02071,-0.03383 -0.04229,-0.05016 -0.06475,-0.049 -0.02246,0.0012 -0.04754,0.01284 -0.07525,0.035 l -0.657992,0.349995 c -0.02363,0.01255 -0.04287,0.02947 -0.05775,0.05075 -0.01488,0.0213 -0.0096,0.05571 0.01575,0.103248 0.118997,0.194546 0.230996,0.42496 0.335995,0.691241 0.104997,0.266294 0.160997,0.577207 0.167998,0.932738 l 0,5.053935 c -0.002,0.08108 0.009,0.132416 0.03325,0.153998 0.02421,0.02158 0.07379,0.03092 0.148748,0.028 l 0.615992,0 c 0.07496,0.0029 0.124537,-0.0064 0.148748,-0.028 0.0242,-0.02158 0.03529,-0.07291 0.03325,-0.153998 l 0,-4.269945 c 0.01808,-0.697652 0.191912,-1.213312 0.521494,-1.54698 0.329576,-0.333656 0.706404,-0.49932 1.130485,-0.496993 0.367783,-8.69e-4 0.633196,0.08838 0.79624,0.267746 0.163034,0.179379 0.24295,0.454125 0.239747,0.82424 l 0,0.811989 c -0.002,0.08109 0.009,0.13242 0.03325,0.153998 0.0242,0.02159 0.07379,0.03092 0.148749,0.028 l 0.615992,0 c 0.07495,0.0029 0.124533,-0.0064 0.148747,-0.028 0.0242,-0.02158 0.03529,-0.07291 0.03325,-0.153998 z"/>
    <path d="m 106.18672,73.396034 0,-2.099973 c -0.0102,-0.98319 -0.25229,-1.687264 -0.72624,-2.112223 -0.47395,-0.424946 -1.11853,-0.635526 -1.93372,-0.631742 -0.25958,-0.0064 -0.53841,0.03442 -0.83649,0.122499 -0.29808,0.08809 -0.56991,0.26192 -0.81549,0.521493 l 0,-2.701966 c 0.002,-0.08107 -0.009,-0.132405 -0.0332,-0.153998 -0.0242,-0.02157 -0.0738,-0.03091 -0.14875,-0.028 l -0.61599,0 c -0.075,-0.0029 -0.12454,0.0064 -0.14875,0.028 -0.0242,0.02159 -0.0353,0.07293 -0.0332,0.153998 l 0,7.419905 c -0.002,0.357872 -0.0435,0.685117 -0.12425,0.981737 -0.0808,0.296622 -0.1887,0.599368 -0.32374,0.908239 -0.0233,0.06942 -0.0327,0.119581 -0.028,0.150498 0.005,0.03092 0.0373,0.04608 0.098,0.0455 l 0.76999,0 c 0.0487,0.0018 0.0878,-0.0053 0.11725,-0.021 0.0295,-0.01575 0.051,-0.05075 0.0648,-0.104998 0.0469,-0.122499 0.0895,-0.241497 0.12774,-0.356996 0.0382,-0.115498 0.0843,-0.290495 0.13825,-0.524993 0.19366,0.397537 0.44683,0.69095 0.75949,0.880239 0.31266,0.189289 0.65682,0.283204 1.03249,0.281746 0.81519,0.01021 1.45977,-0.199206 1.93372,-0.628242 0.47395,-0.429035 0.71603,-1.138942 0.72624,-2.129722 z m -0.96598,0 c -0.003,0.67491 -0.1508,1.14507 -0.44275,1.410481 -0.29196,0.265414 -0.70903,0.392579 -1.25123,0.381495 -0.3745,0.0018 -0.735,-0.166246 -1.08149,-0.503993 -0.3465,-0.337744 -0.53199,-0.855737 -0.55649,-1.55398 l 0,-1.903976 c -0.008,-0.493196 0.11287,-0.896274 0.36225,-1.209234 0.24936,-0.312948 0.67461,-0.474529 1.27573,-0.484744 0.56057,-0.01137 0.9829,0.112881 1.26698,0.372746 0.28408,0.259877 0.42641,0.723621 0.427,1.391232 z" />
    <path d="m 114.09235,75.860002 c -0.17384,-0.274455 -0.32317,-0.576034 -0.448,-0.904739 -0.12483,-0.328703 -0.19017,-0.675781 -0.19599,-1.041236 l 0,-5.109934 c 0.002,-0.08107 -0.009,-0.132408 -0.0332,-0.153998 -0.0242,-0.02158 -0.0738,-0.03091 -0.14875,-0.028 l -0.61599,0 c -0.075,-0.0029 -0.12455,0.0064 -0.14875,0.028 -0.0242,0.02159 -0.0353,0.07292 -0.0333,0.153998 l 0,4.325944 c -0.023,0.69766 -0.20796,1.213319 -0.55474,1.54698 -0.3468,0.333663 -0.71721,0.499328 -1.11124,0.496994 -0.56058,0.01167 -0.98291,-0.113164 -1.26698,-0.374496 -0.28409,-0.261328 -0.42642,-0.729155 -0.427,-1.403481 l 0,-4.591941 c 0.002,-0.08107 -0.009,-0.132408 -0.0333,-0.153998 -0.0242,-0.02158 -0.0738,-0.03091 -0.14875,-0.028 l -0.60199,0 c -0.075,-0.0029 -0.12454,0.0064 -0.14875,0.028 -0.0242,0.02159 -0.0353,0.07292 -0.0332,0.153998 l 0,4.591941 c 0.0102,0.99078 0.25229,1.700687 0.72625,2.129722 0.47395,0.429036 1.11852,0.63845 1.93372,0.628242 0.45032,0.0015 0.82015,-0.09246 1.10949,-0.281747 0.28932,-0.189289 0.52615,-0.482701 0.71049,-0.880238 0.0609,0.18579 0.12103,0.346204 0.18024,0.481244 0.0592,0.13504 0.12979,0.263955 0.21175,0.386745 0.0327,0.05483 0.0653,0.09217 0.098,0.111998 0.0327,0.01983 0.0793,0.02917 0.14,0.028 l 0.76999,0 c 0.0624,0.0012 0.0986,-0.0082 0.1085,-0.028 0.01,-0.01983 -0.003,-0.05717 -0.0385,-0.111998 z m -1.20399,-9.043884 c -0.004,-0.202404 -0.07,-0.375069 -0.19949,-0.517993 -0.12951,-0.142905 -0.30101,-0.217571 -0.5145,-0.223997 -0.21525,0.0056 -0.39375,0.07847 -0.53549,0.218747 -0.14175,0.1403 -0.21525,0.314714 -0.2205,0.523243 0.003,0.208548 0.0709,0.382962 0.20475,0.523243 0.13387,0.140299 0.31762,0.213214 0.55124,0.218748 0.19512,-0.0038 0.36137,-0.0732 0.49875,-0.208248 0.13736,-0.135031 0.20911,-0.312945 0.21524,-0.533743 z m -2.75796,0 c -0.005,-0.20853 -0.0787,-0.382944 -0.2205,-0.523243 -0.14175,-0.14028 -0.32025,-0.213196 -0.53549,-0.218747 -0.2135,0.0064 -0.385,0.08109 -0.51449,0.223997 -0.1295,0.142924 -0.196,0.315588 -0.1995,0.517993 0.006,0.220798 0.0779,0.398712 0.21525,0.533743 0.13737,0.135049 0.30361,0.204464 0.49874,0.208248 0.23362,-0.0055 0.41737,-0.07845 0.55124,-0.218748 0.13387,-0.140281 0.20212,-0.314695 0.20475,-0.523243 z" />
    <path d="m 120.79727,71.408059 0,-0.811989 c -0.014,-0.723318 -0.21001,-1.250644 -0.588,-1.58198 -0.378,-0.331322 -0.85399,-0.494653 -1.42798,-0.489994 -0.40862,0.002 -0.76737,0.102965 -1.07623,0.302747 -0.30888,0.199796 -0.55212,0.486208 -0.72974,0.859238 -0.0747,-0.192782 -0.14934,-0.370696 -0.224,-0.533743 -0.0747,-0.163032 -0.16333,-0.330447 -0.266,-0.502243 -0.0207,-0.03383 -0.0423,-0.05016 -0.0648,-0.049 -0.0225,0.0012 -0.0475,0.01284 -0.0752,0.035 l -0.65799,0.349995 c -0.0236,0.01255 -0.0429,0.02947 -0.0577,0.05075 -0.0149,0.0213 -0.01,0.05571 0.0157,0.103248 0.119,0.194546 0.231,0.42496 0.336,0.691241 0.105,0.266294 0.16099,0.577207 0.168,0.932738 l 0,5.053935 c -0.002,0.08108 0.009,0.132416 0.0332,0.153998 0.0242,0.02158 0.0738,0.03092 0.14874,0.028 l 0.616,0 c 0.075,0.0029 0.12453,-0.0064 0.14874,-0.028 0.0242,-0.02158 0.0353,-0.07291 0.0333,-0.153998 l 0,-4.269945 c 0.0181,-0.697652 0.19192,-1.213312 0.5215,-1.54698 0.32957,-0.333656 0.7064,-0.49932 1.13048,-0.496993 0.36778,-8.69e-4 0.6332,0.08838 0.79624,0.267746 0.16304,0.179379 0.24295,0.454125 0.23975,0.82424 l 0,0.811989 c -0.002,0.08109 0.009,0.13242 0.0333,0.153998 0.0242,0.02159 0.0738,0.03092 0.14875,0.028 l 0.61599,0 c 0.075,0.0029 0.12453,-0.0064 0.14875,-0.028 0.0242,-0.02158 0.0353,-0.07291 0.0332,-0.153998 z"/>
    <path d="m 127.87186,73.942026 0,-3.191958 c 0.007,-0.753652 -0.19951,-1.311311 -0.6195,-1.672979 -0.42,-0.361655 -1.09549,-0.541319 -2.02647,-0.538993 -0.93099,-0.0023 -1.60648,0.177338 -2.02647,0.538993 -0.42,0.361668 -0.6265,0.919327 -0.6195,1.672979 l 0,3.191958 c -0.007,0.753659 0.1995,1.311317 0.6195,1.672979 0.41999,0.361662 1.09548,0.541326 2.02647,0.538993 0.93098,0.0023 1.60647,-0.177331 2.02647,-0.538993 0.41999,-0.361662 0.62649,-0.91932 0.6195,-1.672979 z m -0.97999,0 c 0.0155,0.450038 -0.0925,0.77145 -0.32375,0.964238 -0.23129,0.19279 -0.6787,0.286705 -1.34223,0.281746 -0.66354,0.005 -1.11095,-0.08896 -1.34223,-0.281746 -0.23129,-0.192788 -0.33921,-0.5142 -0.32375,-0.964238 l 0,-3.191958 c -0.0155,-0.450031 0.0925,-0.771443 0.32375,-0.964238 0.23128,-0.192783 0.67869,-0.286698 1.34223,-0.281746 0.66353,-0.005 1.11094,0.08896 1.34223,0.281746 0.23129,0.192795 0.3392,0.514207 0.32375,0.964238 z"/>
    <path d="m 139.60977,66.382124 c 0.0152,-0.01982 0.0233,-0.03616 0.0245,-0.049 0.001,-0.01282 -0.0117,-0.02916 -0.0385,-0.049 -0.23859,-0.175863 -0.50342,-0.310611 -0.79449,-0.404245 -0.29109,-0.09361 -0.60492,-0.140863 -0.94149,-0.141748 -0.82483,-0.0023 -1.43965,0.177341 -1.84448,0.538993 -0.40483,0.361671 -0.60666,0.91933 -0.60549,1.672979 l 0,0.671991 -1.51198,0 c -0.075,-0.0029 -0.12454,0.0064 -0.14875,0.028 -0.0242,0.02159 -0.0353,0.07292 -0.0333,0.153998 l 0,0.615992 c -0.002,0.08109 0.009,0.132421 0.0333,0.153998 0.0242,0.02159 0.0738,0.03092 0.14875,0.028 l 1.52598,0 0,6.21592 c -0.002,0.08108 0.009,0.132416 0.0332,0.153998 0.0242,0.02158 0.0738,0.03092 0.14875,0.028 l 0.61599,0 c 0.075,0.0035 0.12454,-0.007 0.14875,-0.0315 0.0242,-0.0245 0.0353,-0.084 0.0332,-0.178497 l 0,-6.187921 1.98797,0 c 0.075,0.0029 0.12454,-0.0064 0.14875,-0.028 0.0242,-0.02158 0.0353,-0.07291 0.0333,-0.153998 l 0,-0.615992 c 0.002,-0.08107 -0.009,-0.132408 -0.0333,-0.153998 -0.0242,-0.02158 -0.0738,-0.03091 -0.14875,-0.028 l -2.00197,0 0,-0.671991 c -0.0166,-0.424945 0.0726,-0.737024 0.26774,-0.936238 0.19512,-0.199197 0.59587,-0.297779 1.20224,-0.295746 0.21728,-8.66e-4 0.4232,0.02888 0.61774,0.08925 0.19453,0.06038 0.37595,0.156632 0.54424,0.288747 0.0397,0.03034 0.0723,0.02568 0.098,-0.014 z"/>
    <path d="m 146.52204,75.860002 c -0.17384,-0.274455 -0.32317,-0.576034 -0.448,-0.904739 -0.12484,-0.328703 -0.19017,-0.675781 -0.196,-1.041236 l 0,-5.109934 c 0.002,-0.08107 -0.009,-0.132408 -0.0333,-0.153998 -0.0242,-0.02158 -0.0738,-0.03091 -0.14874,-0.028 l -0.616,0 c -0.075,-0.0029 -0.12454,0.0064 -0.14874,0.028 -0.0242,0.02159 -0.0353,0.07292 -0.0333,0.153998 l 0,4.325944 c -0.023,0.69766 -0.20796,1.213319 -0.55475,1.54698 -0.34679,0.333663 -0.7172,0.499328 -1.11123,0.496994 -0.56058,0.01167 -0.98291,-0.113164 -1.26699,-0.374496 -0.28408,-0.261328 -0.42641,-0.729155 -0.42699,-1.403481 l 0,-4.591941 c 0.002,-0.08107 -0.009,-0.132408 -0.0332,-0.153998 -0.0242,-0.02158 -0.0738,-0.03091 -0.14875,-0.028 l -0.60199,0 c -0.075,-0.0029 -0.12454,0.0064 -0.14875,0.028 -0.0242,0.02159 -0.0353,0.07292 -0.0332,0.153998 l 0,4.591941 c 0.0102,0.99078 0.25229,1.700687 0.72624,2.129722 0.47395,0.429036 1.11853,0.63845 1.93373,0.628242 0.45032,0.0015 0.82015,-0.09246 1.10948,-0.281747 0.28933,-0.189289 0.52616,-0.482701 0.71049,-0.880238 0.061,0.18579 0.12104,0.346204 0.18025,0.481244 0.0592,0.13504 0.12979,0.263955 0.21175,0.386745 0.0327,0.05483 0.0653,0.09217 0.098,0.111998 0.0327,0.01983 0.0793,0.02917 0.14,0.028 l 0.76999,0 c 0.0624,0.0012 0.0986,-0.0082 0.1085,-0.028 0.01,-0.01983 -0.003,-0.05717 -0.0385,-0.111998 z m -1.20399,-9.043884 c -0.004,-0.202404 -0.07,-0.375069 -0.1995,-0.517993 -0.1295,-0.142905 -0.301,-0.217571 -0.51449,-0.223997 -0.21525,0.0056 -0.39375,0.07847 -0.53549,0.218747 -0.14176,0.1403 -0.21525,0.314714 -0.2205,0.523243 0.003,0.208548 0.0709,0.382962 0.20475,0.523243 0.13387,0.140299 0.31761,0.213214 0.55124,0.218748 0.19512,-0.0038 0.36137,-0.0732 0.49874,-0.208248 0.13737,-0.135031 0.20912,-0.312945 0.21525,-0.533743 z m -2.75796,0 c -0.005,-0.20853 -0.0788,-0.382944 -0.2205,-0.523243 -0.14175,-0.14028 -0.32025,-0.213196 -0.53549,-0.218747 -0.2135,0.0064 -0.385,0.08109 -0.5145,0.223997 -0.1295,0.142924 -0.196,0.315588 -0.19949,0.517993 0.006,0.220798 0.0779,0.398712 0.21524,0.533743 0.13737,0.135049 0.30362,0.204464 0.49875,0.208248 0.23362,-0.0055 0.41736,-0.07845 0.55124,-0.218748 0.13387,-0.140281 0.20212,-0.314695 0.20475,-0.523243 z"/>
    <path d="m 153.22695,71.408059 0,-0.811989 c -0.014,-0.723318 -0.21,-1.250644 -0.58799,-1.58198 -0.378,-0.331322 -0.85399,-0.494653 -1.42798,-0.489994 -0.40862,0.002 -0.76737,0.102965 -1.07624,0.302747 -0.30887,0.199796 -0.55212,0.486208 -0.72974,0.859238 -0.0747,-0.192782 -0.14933,-0.370696 -0.22399,-0.533743 -0.0747,-0.163032 -0.16334,-0.330447 -0.266,-0.502243 -0.0207,-0.03383 -0.0423,-0.05016 -0.0648,-0.049 -0.0225,0.0012 -0.0475,0.01284 -0.0752,0.035 l -0.65799,0.349995 c -0.0236,0.01255 -0.0429,0.02947 -0.0577,0.05075 -0.0149,0.0213 -0.01,0.05571 0.0157,0.103248 0.119,0.194546 0.231,0.42496 0.336,0.691241 0.10499,0.266294 0.16099,0.577207 0.16799,0.932738 l 0,5.053935 c -0.002,0.08108 0.009,0.132416 0.0332,0.153998 0.0242,0.02158 0.0738,0.03092 0.14875,0.028 l 0.61599,0 c 0.075,0.0029 0.12454,-0.0064 0.14875,-0.028 0.0242,-0.02158 0.0353,-0.07291 0.0333,-0.153998 l 0,-4.269945 c 0.0181,-0.697652 0.19191,-1.213312 0.52149,-1.54698 0.32958,-0.333656 0.70641,-0.49932 1.13049,-0.496993 0.36778,-8.69e-4 0.6332,0.08838 0.79624,0.267746 0.16303,0.179379 0.24295,0.454125 0.23975,0.82424 l 0,0.811989 c -0.002,0.08109 0.009,0.13242 0.0333,0.153998 0.0242,0.02159 0.0738,0.03092 0.14874,0.028 l 0.616,0 c 0.075,0.0029 0.12453,-0.0064 0.14874,-0.028 0.0242,-0.02158 0.0353,-0.07291 0.0332,-0.153998 z"/>
    <path d="m 165.46535,73.242036 c -0.0108,-0.736154 -0.24471,-1.314813 -0.70174,-1.735978 -0.45704,-0.421156 -1.07245,-0.761818 -1.84623,-1.021987 -0.81491,-0.284949 -1.34456,-0.558529 -1.58898,-0.82074 -0.24441,-0.262198 -0.35408,-0.609277 -0.32899,-1.041236 0.003,-0.420862 0.14729,-0.762107 0.43224,-1.023737 0.28495,-0.261613 0.69153,-0.396361 1.21974,-0.404245 0.38849,-0.0026 0.71048,0.05863 0.96599,0.183748 0.25549,0.125132 0.50748,0.329879 0.75599,0.614242 0.0394,0.04872 0.0726,0.0738 0.0997,0.07525 0.0271,0.0015 0.0639,-0.01895 0.11025,-0.06125 l 0.546,-0.475994 c 0.0347,-0.02653 0.0528,-0.05045 0.0542,-0.07175 0.001,-0.02128 -0.012,-0.0487 -0.0402,-0.08225 -0.31909,-0.366903 -0.67142,-0.651565 -1.05699,-0.853989 -0.38558,-0.202405 -0.86391,-0.30507 -1.43498,-0.307996 -0.76416,0.01022 -1.38832,0.231298 -1.87248,0.663241 -0.48416,0.431962 -0.73732,1.013537 -0.75949,1.744728 0.002,0.487084 0.0747,0.870912 0.217,1.151485 0.14233,0.280586 0.34066,0.517416 0.59499,0.710491 0.24908,0.203878 0.49641,0.373625 0.74199,0.509243 0.24558,0.135628 0.59091,0.273877 1.03599,0.414745 0.67228,0.216127 1.15469,0.476873 1.44723,0.78224 0.29253,0.305375 0.43545,0.66062 0.42874,1.065736 -0.0341,0.827158 -0.25637,1.360317 -0.66674,1.59948 -0.41037,0.239164 -0.80412,0.345329 -1.18123,0.318496 -0.36808,0.0067 -0.72391,-0.07671 -1.06749,-0.250247 -0.34358,-0.173539 -0.65041,-0.435452 -0.92049,-0.78574 -0.0583,-0.07233 -0.12366,-0.08166 -0.19599,-0.028 l -0.588,0.419995 c -0.0475,0.03238 -0.0715,0.05863 -0.0718,0.07875 -2.9e-4,0.02013 0.0143,0.04988 0.0438,0.08925 0.41387,0.526161 0.86712,0.901822 1.35974,1.126985 0.49261,0.225164 0.97736,0.334829 1.45423,0.328996 0.91961,-0.0015 1.61785,-0.247038 2.09472,-0.736741 0.47686,-0.489701 0.71661,-1.214774 0.71924,-2.175221 z"/>
    <path d="m 172.71561,73.942026 0,-3.191958 c 0.007,-0.753652 -0.19951,-1.311311 -0.6195,-1.672979 -0.42,-0.361655 -1.09549,-0.541319 -2.02647,-0.538993 -0.93099,-0.0023 -1.60648,0.177338 -2.02647,0.538993 -0.42,0.361668 -0.6265,0.919327 -0.6195,1.672979 l 0,3.191958 c -0.007,0.753659 0.1995,1.311317 0.6195,1.672979 0.41999,0.361662 1.09548,0.541326 2.02647,0.538993 0.93098,0.0023 1.60647,-0.177331 2.02647,-0.538993 0.41999,-0.361662 0.62649,-0.91932 0.6195,-1.672979 z m -0.97999,0 c 0.0154,0.450038 -0.0925,0.77145 -0.32375,0.964238 -0.23129,0.19279 -0.6787,0.286705 -1.34223,0.281746 -0.66354,0.005 -1.11095,-0.08896 -1.34223,-0.281746 -0.23129,-0.192788 -0.33921,-0.5142 -0.32375,-0.964238 l 0,-3.191958 c -0.0155,-0.450031 0.0925,-0.771443 0.32375,-0.964238 0.23128,-0.192783 0.67869,-0.286698 1.34223,-0.281746 0.66353,-0.005 1.11094,0.08896 1.34223,0.281746 0.23129,0.192795 0.3392,0.514207 0.32375,0.964238 z" />
    <path d="m 179.6957,66.382124 c 0.0152,-0.01982 0.0233,-0.03616 0.0245,-0.049 0.001,-0.01282 -0.0117,-0.02916 -0.0385,-0.049 -0.23858,-0.175863 -0.50341,-0.310611 -0.79449,-0.404245 -0.29108,-0.09361 -0.60491,-0.140863 -0.94148,-0.141748 -0.82483,-0.0023 -1.43965,0.177341 -1.84448,0.538993 -0.40483,0.361671 -0.60666,0.91933 -0.60549,1.672979 l 0,0.671991 -1.51198,0 c -0.075,-0.0029 -0.12454,0.0064 -0.14875,0.028 -0.0242,0.02159 -0.0353,0.07292 -0.0332,0.153998 l 0,0.615992 c -0.002,0.08109 0.009,0.132421 0.0332,0.153998 0.0242,0.02159 0.0738,0.03092 0.14875,0.028 l 1.52598,0 0,6.21592 c -0.002,0.08108 0.009,0.132416 0.0333,0.153998 0.0242,0.02158 0.0738,0.03092 0.14875,0.028 l 0.61599,0 c 0.075,0.0035 0.12453,-0.007 0.14875,-0.0315 0.0242,-0.0245 0.0353,-0.084 0.0332,-0.178497 l 0,-6.187921 1.98797,0 c 0.075,0.0029 0.12453,-0.0064 0.14875,-0.028 0.0242,-0.02158 0.0353,-0.07291 0.0332,-0.153998 l 0,-0.615992 c 0.002,-0.08107 -0.009,-0.132408 -0.0332,-0.153998 -0.0242,-0.02158 -0.0738,-0.03091 -0.14875,-0.028 l -2.00197,0 0,-0.671991 c -0.0166,-0.424945 0.0726,-0.737024 0.26774,-0.936238 0.19512,-0.199197 0.59587,-0.297779 1.20224,-0.295746 0.21728,-8.66e-4 0.42319,0.02888 0.61774,0.08925 0.19453,0.06038 0.37595,0.156632 0.54424,0.288747 0.0397,0.03034 0.0723,0.02568 0.098,-0.014 z" />
    <path d="m 185.44599,75.510006 -0.49,-0.699991 c -0.0257,-0.03967 -0.0583,-0.04433 -0.098,-0.014 -0.1683,0.132124 -0.34971,0.228372 -0.54425,0.288745 -0.19454,0.06038 -0.40045,0.09013 -0.61774,0.08925 -0.60637,0.002 -1.00711,-0.09654 -1.20223,-0.295747 -0.19513,-0.199205 -0.28438,-0.511283 -0.26775,-0.936238 l 0,-4.339944 2.16997,0 c 0.075,0.0029 0.12454,-0.0064 0.14875,-0.028 0.0242,-0.02158 0.0353,-0.07291 0.0333,-0.153998 l 0,-0.615992 c 0.002,-0.08107 -0.009,-0.132408 -0.0333,-0.153998 -0.0242,-0.02158 -0.0738,-0.03091 -0.14875,-0.028 l -2.16997,0 0,-1.847976 c 0.002,-0.08107 -0.009,-0.132406 -0.0333,-0.153998 -0.0242,-0.02157 -0.0738,-0.03091 -0.14875,-0.028 l -0.61599,0 c -0.075,-0.0041 -0.12454,0.0076 -0.14875,0.035 -0.0242,0.02743 -0.0353,0.09509 -0.0333,0.202998 l 0,1.791977 -1.28798,0 c -0.075,-0.0029 -0.12454,0.0064 -0.14875,0.028 -0.0242,0.02159 -0.0353,0.07292 -0.0333,0.153998 l 0,0.615992 c -0.002,0.08109 0.009,0.132421 0.0333,0.153998 0.0242,0.02159 0.0738,0.03092 0.14875,0.028 l 1.28798,0 0,4.339944 c -10e-4,0.753659 0.20066,1.311317 0.60549,1.672979 0.40483,0.361662 1.01965,0.541326 1.84448,0.538993 0.33658,-8.75e-4 0.6504,-0.04812 0.94149,-0.141748 0.29107,-0.09362 0.5559,-0.228372 0.79449,-0.404245 0.0268,-0.01983 0.0397,-0.03617 0.0385,-0.049 -0.001,-0.01283 -0.009,-0.02917 -0.0245,-0.049 z"/>
    <path d="m 194.85482,68.804093 c 0.0157,-0.07495 0.0157,-0.124533 0,-0.148749 -0.0158,-0.0242 -0.0578,-0.03528 -0.126,-0.03325 l -0.57399,0 c -0.0878,-0.0023 -0.14672,0.0058 -0.17675,0.0245 -0.0301,0.01867 -0.0505,0.06184 -0.0613,0.129498 l -0.92399,5.109934 c -0.0548,0.323748 -0.0957,0.621244 -0.1225,0.892489 -0.0268,0.271247 -0.0467,0.505744 -0.0595,0.703491 -0.0233,-0.200081 -0.0607,-0.440411 -0.112,-0.720991 -0.0513,-0.280578 -0.10267,-0.534908 -0.15399,-0.76299 l -1.27399,-5.277932 c -0.0131,-0.04695 -0.0289,-0.07553 -0.0472,-0.08575 -0.0184,-0.0102 -0.0446,-0.01428 -0.0788,-0.01225 l -1.23198,0 c -0.0341,-0.002 -0.0604,0.002 -0.0788,0.01225 -0.0184,0.01022 -0.0341,0.0388 -0.0472,0.08575 l -1.27398,5.277932 c -0.0513,0.228082 -0.10267,0.482411 -0.154,0.76299 -0.0513,0.280581 -0.0887,0.520911 -0.112,0.720991 -0.0128,-0.197747 -0.0327,-0.432244 -0.0595,-0.703491 -0.0268,-0.271245 -0.0677,-0.568741 -0.1225,-0.892489 l -0.92398,-5.109934 c -0.0108,-0.06766 -0.0312,-0.110825 -0.0613,-0.129499 -0.03,-0.01866 -0.089,-0.02682 -0.17675,-0.0245 l -0.57399,0 c -0.0683,-0.002 -0.11025,0.009 -0.126,0.03325 -0.0157,0.02422 -0.0157,0.0738 0,0.148749 l 1.31598,7.041909 c 0.0131,0.06767 0.0324,0.110832 0.0577,0.129498 0.0254,0.01867 0.0621,0.02683 0.11025,0.0245 l 1.13398,0 c 0.0481,0.0012 0.0849,-0.0082 0.11025,-0.028 0.0254,-0.01983 0.0446,-0.05717 0.0577,-0.111998 l 1.14799,-4.885937 c 0.0977,-0.39024 0.17878,-0.719235 0.24324,-0.986988 0.0645,-0.26774 0.11404,-0.568736 0.14875,-0.902988 0.0347,0.334252 0.0843,0.635248 0.14875,0.902988 0.0645,0.267753 0.14553,0.596748 0.24325,0.986988 l 1.14798,4.885937 c 0.0131,0.05483 0.0324,0.09217 0.0577,0.111998 0.0254,0.01983 0.0621,0.02917 0.11025,0.028 l 1.13399,0 c 0.0481,0.0023 0.0849,-0.0058 0.11024,-0.0245 0.0254,-0.01867 0.0446,-0.06183 0.0577,-0.129498 z" />
    <path d="m 202.49404,75.860002 c -0.16713,-0.274455 -0.31238,-0.576034 -0.43575,-0.904739 -0.12338,-0.328703 -0.18813,-0.675781 -0.19425,-1.041236 l 0,-3.163959 c -0.0131,-0.821026 -0.24237,-1.397934 -0.68774,-1.730728 -0.44537,-0.332781 -1.02811,-0.493195 -1.74822,-0.481244 -0.41563,0.0015 -0.81637,0.06155 -1.20224,0.180248 -0.38587,0.118714 -0.74112,0.287295 -1.06574,0.505743 -0.0537,0.03967 -0.0793,0.07234 -0.077,0.098 0.002,0.02567 0.0187,0.05834 0.049,0.098 l 0.434,0.615992 c 0.0257,0.04084 0.0478,0.06067 0.0665,0.0595 0.0187,-0.0012 0.0478,-0.01633 0.0875,-0.0455 0.30128,-0.212033 0.6052,-0.354948 0.91174,-0.428745 0.30653,-0.07378 0.57194,-0.1082 0.79624,-0.103249 0.56903,-0.002 0.95694,0.09655 1.16373,0.295747 0.20678,0.199212 0.3042,0.511291 0.29225,0.936238 l 0,0.937988 -1.67998,0 c -0.97416,0.0047 -1.66132,0.201834 -2.06148,0.591492 -0.40016,0.389665 -0.59032,0.943824 -0.57049,1.662478 -0.012,0.704659 0.18346,1.248318 0.58624,1.630979 0.40279,0.382662 1.0847,0.576326 2.04573,0.580993 0.4442,0.0015 0.81228,-0.09246 1.10423,-0.281747 0.29195,-0.189289 0.53053,-0.482701 0.71574,-0.880238 0.068,0.18579 0.13154,0.346204 0.19075,0.481244 0.0592,0.13504 0.12629,0.263955 0.20125,0.386745 0.0327,0.05483 0.0653,0.09217 0.098,0.111998 0.0327,0.01983 0.0793,0.02917 0.14,0.028 l 0.76999,0 c 0.0624,0.0012 0.0986,-0.0082 0.1085,-0.028 0.01,-0.01983 -0.003,-0.05717 -0.0385,-0.111998 z m -1.62398,-2.729965 c -0.0257,0.69766 -0.21584,1.213319 -0.5705,1.54698 -0.35466,0.333663 -0.71982,0.499328 -1.09548,0.496994 -0.57108,0.0073 -0.98991,-0.08079 -1.25649,-0.264247 -0.26658,-0.183454 -0.39841,-0.506033 -0.39549,-0.967738 -0.003,-0.481824 0.12862,-0.816653 0.39374,-1.004487 0.26512,-0.187827 0.67987,-0.277659 1.24424,-0.269496 l 1.67998,0 z"/>
    <path d="m 209.06289,71.408059 0,-0.811989 c -0.014,-0.723318 -0.21,-1.250644 -0.58799,-1.58198 -0.378,-0.331322 -0.85399,-0.494653 -1.42798,-0.489994 -0.40863,0.002 -0.76737,0.102965 -1.07624,0.302747 -0.30887,0.199796 -0.55212,0.486208 -0.72974,0.859238 -0.0747,-0.192782 -0.14933,-0.370696 -0.224,-0.533743 -0.0747,-0.163032 -0.16333,-0.330447 -0.26599,-0.502243 -0.0207,-0.03383 -0.0423,-0.05016 -0.0647,-0.049 -0.0225,0.0012 -0.0476,0.01284 -0.0753,0.035 l -0.65799,0.349995 c -0.0236,0.01255 -0.0429,0.02947 -0.0577,0.05075 -0.0149,0.0213 -0.01,0.05571 0.0157,0.103248 0.119,0.194546 0.23099,0.42496 0.33599,0.691241 0.105,0.266294 0.161,0.577207 0.168,0.932738 l 0,5.053935 c -0.002,0.08108 0.009,0.132416 0.0333,0.153998 0.0242,0.02158 0.0738,0.03092 0.14875,0.028 l 0.61599,0 c 0.075,0.0029 0.12454,-0.0064 0.14875,-0.028 0.0242,-0.02158 0.0353,-0.07291 0.0332,-0.153998 l 0,-4.269945 c 0.0181,-0.697652 0.19191,-1.213312 0.52149,-1.54698 0.32958,-0.333656 0.70641,-0.49932 1.13049,-0.496993 0.36778,-8.69e-4 0.63319,0.08838 0.79624,0.267746 0.16303,0.179379 0.24295,0.454125 0.23974,0.82424 l 0,0.811989 c -0.002,0.08109 0.009,0.13242 0.0333,0.153998 0.0242,0.02159 0.0738,0.03092 0.14875,0.028 l 0.61599,0 c 0.075,0.0029 0.12454,-0.0064 0.14875,-0.028 0.0242,-0.02158 0.0353,-0.07291 0.0333,-0.153998 z"/>
    <path d="m 216.13748,72.500045 0,-1.749977 c 0.007,-0.753652 -0.1995,-1.311311 -0.61949,-1.672979 -0.42,-0.361655 -1.09549,-0.541319 -2.02647,-0.538993 -0.931,-0.0023 -1.60649,0.177338 -2.02648,0.538993 -0.41999,0.361668 -0.62649,0.919327 -0.61949,1.672979 l 0,3.191958 c -5.8e-4,0.753659 0.20358,1.311317 0.61249,1.672979 0.40891,0.361662 1.02607,0.541326 1.85148,0.538993 l 0.78399,0 c 0.33657,-8.75e-4 0.6504,-0.04812 0.94149,-0.141748 0.29107,-0.09362 0.5559,-0.228372 0.79449,-0.404245 0.0268,-0.01983 0.0397,-0.03617 0.0385,-0.049 -0.001,-0.01283 -0.009,-0.02917 -0.0245,-0.049 l -0.49,-0.699991 c -0.0257,-0.03967 -0.0583,-0.04433 -0.098,-0.014 -0.16829,0.132124 -0.34971,0.228372 -0.54424,0.288745 -0.19454,0.06038 -0.40046,0.09013 -0.61774,0.08925 l -0.78399,0 c -0.60637,0.002 -1.00712,-0.09654 -1.20224,-0.295747 -0.19512,-0.199205 -0.28437,-0.511283 -0.26774,-0.936238 l 0,-1.273983 4.10194,0 c 0.0817,0.0035 0.13533,-0.0035 0.161,-0.021 0.0257,-0.0175 0.0373,-0.0665 0.035,-0.146998 z m -0.97999,-0.811989 -3.33195,0 0,-0.937988 c -0.0155,-0.450031 0.0925,-0.771443 0.32374,-0.964238 0.23129,-0.192783 0.6787,-0.286698 1.34224,-0.281746 0.66352,-0.005 1.11093,0.08896 1.34223,0.281746 0.23128,0.192795 0.3392,0.514207 0.32374,0.964238 z"/>
    <path d="m 222.87958,75.510006 -0.48999,-0.699991 c -0.0257,-0.03967 -0.0583,-0.04433 -0.098,-0.014 -0.16829,0.132124 -0.34971,0.228372 -0.54424,0.288745 -0.19455,0.06038 -0.40046,0.09013 -0.61775,0.08925 -0.60637,0.002 -1.00711,-0.09654 -1.20223,-0.295747 -0.19513,-0.199205 -0.28437,-0.511283 -0.26775,-0.936238 l 0,-4.339944 2.16998,0 c 0.075,0.0029 0.12453,-0.0064 0.14874,-0.028 0.0242,-0.02158 0.0353,-0.07291 0.0333,-0.153998 l 0,-0.615992 c 0.002,-0.08107 -0.009,-0.132408 -0.0333,-0.153998 -0.0242,-0.02158 -0.0738,-0.03091 -0.14874,-0.028 l -2.16998,0 0,-1.847976 c 0.002,-0.08107 -0.009,-0.132406 -0.0332,-0.153998 -0.0242,-0.02157 -0.0738,-0.03091 -0.14874,-0.028 l -0.616,0 c -0.075,-0.0041 -0.12454,0.0076 -0.14874,0.035 -0.0242,0.02743 -0.0353,0.09509 -0.0332,0.202998 l 0,1.791977 -1.28799,0 c -0.075,-0.0029 -0.12454,0.0064 -0.14875,0.028 -0.0242,0.02159 -0.0353,0.07292 -0.0332,0.153998 l 0,0.615992 c -0.002,0.08109 0.009,0.132421 0.0332,0.153998 0.0242,0.02159 0.0738,0.03092 0.14875,0.028 l 1.28799,0 0,4.339944 c -0.001,0.753659 0.20066,1.311317 0.60549,1.672979 0.40482,0.361662 1.01965,0.541326 1.84447,0.538993 0.33658,-8.75e-4 0.65041,-0.04812 0.94149,-0.141748 0.29108,-0.09362 0.55591,-0.228372 0.79449,-0.404245 0.0268,-0.01983 0.0397,-0.03617 0.0385,-0.049 -0.001,-0.01283 -0.009,-0.02917 -0.0245,-0.049 z" />
    <path d="m 229.18045,72.500045 0,-1.749977 c 0.007,-0.753652 -0.1995,-1.311311 -0.61949,-1.672979 -0.42,-0.361655 -1.09549,-0.541319 -2.02648,-0.538993 -0.93099,-0.0023 -1.60648,0.177338 -2.02647,0.538993 -0.42,0.361668 -0.62649,0.919327 -0.61949,1.672979 l 0,3.191958 c -5.9e-4,0.753659 0.20358,1.311317 0.61249,1.672979 0.40891,0.361662 1.02607,0.541326 1.85148,0.538993 l 0.78399,0 c 0.33657,-8.75e-4 0.6504,-0.04812 0.94148,-0.141748 0.29108,-0.09362 0.55591,-0.228372 0.79449,-0.404245 0.0268,-0.01983 0.0397,-0.03617 0.0385,-0.049 -0.001,-0.01283 -0.009,-0.02917 -0.0245,-0.049 l -0.48999,-0.699991 c -0.0257,-0.03967 -0.0583,-0.04433 -0.098,-0.014 -0.16829,0.132124 -0.34971,0.228372 -0.54424,0.288745 -0.19455,0.06038 -0.40046,0.09013 -0.61774,0.08925 l -0.78399,0 c -0.60637,0.002 -1.00712,-0.09654 -1.20224,-0.295747 -0.19512,-0.199205 -0.28437,-0.511283 -0.26774,-0.936238 l 0,-1.273983 4.10194,0 c 0.0817,0.0035 0.13533,-0.0035 0.161,-0.021 0.0257,-0.0175 0.0373,-0.0665 0.035,-0.146998 z m -0.97999,-0.811989 -3.33195,0 0,-0.937988 c -0.0155,-0.450031 0.0925,-0.771443 0.32374,-0.964238 0.23129,-0.192783 0.6787,-0.286698 1.34223,-0.281746 0.66353,-0.005 1.11094,0.08896 1.34224,0.281746 0.23128,0.192795 0.3392,0.514207 0.32374,0.964238 z" />
    <path d="m 236.42654,73.942026 c 8.7e-4,-0.05658 -0.008,-0.100913 -0.0262,-0.132998 -0.0184,-0.03208 -0.0516,-0.04841 -0.0997,-0.049 l -0.714,-0.042 c -0.0554,-0.002 -0.0951,0.01254 -0.11899,0.04375 -0.0239,0.03121 -0.0356,0.09129 -0.035,0.180247 0.0222,0.450038 -0.0817,0.77145 -0.3115,0.964238 -0.22983,0.19279 -0.67666,0.286705 -1.34048,0.281746 -0.66354,0.005 -1.11095,-0.08896 -1.34223,-0.281746 -0.2313,-0.192788 -0.33921,-0.5142 -0.32375,-0.964238 l 0,-3.191958 c -0.0155,-0.450031 0.0925,-0.771443 0.32375,-0.964238 0.23128,-0.192783 0.67869,-0.286698 1.34223,-0.281746 0.66353,-0.005 1.11094,0.08896 1.34223,0.281746 0.23128,0.192795 0.3392,0.514207 0.32375,0.964238 l 0,0.084 c 2.8e-4,0.05484 0.0137,0.09217 0.0402,0.111998 0.0265,0.01984 0.0645,0.02917 0.11374,0.028 l 0.7,-0.042 c 0.0481,-5.78e-4 0.0814,-0.01691 0.0997,-0.049 0.0184,-0.03208 0.0271,-0.07641 0.0262,-0.132998 0.007,-0.753652 -0.1995,-1.311311 -0.61949,-1.672979 -0.42,-0.361655 -1.09549,-0.541319 -2.02647,-0.538993 -0.93099,-0.0023 -1.60648,0.177338 -2.02648,0.538993 -0.41999,0.361668 -0.62649,0.919327 -0.61949,1.672979 l 0,3.191958 c -0.007,0.753659 0.1995,1.311317 0.61949,1.672979 0.42,0.361662 1.09549,0.541326 2.02648,0.538993 0.93098,0.0023 1.60647,-0.177331 2.02647,-0.538993 0.41999,-0.361662 0.62649,-0.91932 0.61949,-1.672979 z"/>
    <path d="m 243.71857,75.818002 0,-5.053935 c 0.004,-0.766484 -0.20708,-1.329976 -0.63349,-1.690478 -0.42642,-0.360488 -1.09257,-0.538985 -1.99847,-0.535493 -0.2593,-0.01224 -0.53871,0.03326 -0.83824,0.136499 -0.29954,0.103255 -0.57546,0.337752 -0.82774,0.70349 l 0,-2.883963 c 0.002,-0.08107 -0.009,-0.132405 -0.0332,-0.153998 -0.0242,-0.02157 -0.0738,-0.03091 -0.14875,-0.028 l -0.61599,0 c -0.075,-0.0029 -0.12454,0.0064 -0.14875,0.028 -0.0242,0.02159 -0.0353,0.07293 -0.0333,0.153998 l 0,9.281881 c -0.003,0.09508 0.007,0.156914 0.0298,0.185497 0.023,0.02858 0.0785,0.04142 0.16625,0.0385 l 0.60199,0 c 0.075,0.0029 0.12454,-0.0064 0.14875,-0.028 0.0242,-0.02158 0.0353,-0.07291 0.0332,-0.153998 l 0,-4.591941 c -10e-4,-0.493779 0.13445,-0.899191 0.40774,-1.216234 0.27329,-0.317031 0.6927,-0.480946 1.25824,-0.491744 0.57719,-0.01108 0.99777,0.07059 1.26173,0.244997 0.26395,0.174421 0.39403,0.508083 0.39025,1.000987 l 0,5.053935 c -0.002,0.08108 0.009,0.132416 0.0332,0.153998 0.0242,0.02158 0.0738,0.03092 0.14875,0.028 l 0.61599,0 c 0.075,0.0029 0.12454,-0.0064 0.14875,-0.028 0.0242,-0.02158 0.0353,-0.07291 0.0333,-0.153998 z"/>
    <path d="m 251.76419,75.818002 0,-4.521941 c -0.0102,-0.990774 -0.25229,-1.700681 -0.72624,-2.129723 -0.47395,-0.429029 -1.11853,-0.638443 -1.93372,-0.628242 -0.44392,-0.0055 -0.79858,0.08605 -1.06399,0.274747 -0.26541,0.188713 -0.50808,0.507792 -0.72799,0.957237 -0.0563,-0.223115 -0.12571,-0.431363 -0.20825,-0.624742 -0.0825,-0.193365 -0.17645,-0.377113 -0.28174,-0.551243 -0.0207,-0.03382 -0.0423,-0.05016 -0.0648,-0.049 -0.0225,0.0012 -0.0475,0.01284 -0.0752,0.035 l -0.65799,0.349995 c -0.0233,0.01255 -0.0432,0.02947 -0.0595,0.05075 -0.0163,0.0213 -0.0152,0.05572 0.004,0.103249 0.11841,0.194546 0.22808,0.424959 0.32899,0.691241 0.10092,0.266294 0.15458,0.577207 0.161,0.932738 l 0,5.109934 c -0.002,0.08108 0.009,0.132416 0.0333,0.153998 0.0242,0.02158 0.0738,0.03092 0.14875,0.028 l 0.61599,0 c 0.075,0.0029 0.12454,-0.0064 0.14875,-0.028 0.0242,-0.02158 0.0353,-0.07291 0.0333,-0.153998 l 0,-4.255945 c 0.023,-0.697653 0.20795,-1.213312 0.55474,-1.54698 0.34679,-0.333656 0.7172,-0.499321 1.11124,-0.496994 0.56057,-0.01166 0.9829,0.113172 1.26698,0.374496 0.28408,0.261336 0.42641,0.729162 0.427,1.403482 l 0,4.521941 c -0.002,0.08108 0.009,0.132416 0.0332,0.153998 0.0242,0.02158 0.0738,0.03092 0.14874,0.028 l 0.602,0 c 0.075,0.0029 0.12453,-0.0064 0.14874,-0.028 0.0242,-0.02158 0.0353,-0.07291 0.0333,-0.153998 z"/>
    <path d="m 256.87729,66.71812 c -0.006,-0.23653 -0.0852,-0.431944 -0.23799,-0.586243 -0.15284,-0.15428 -0.34417,-0.234195 -0.574,-0.239747 -0.2482,0.0073 -0.44478,0.09072 -0.58974,0.250247 -0.14496,0.159549 -0.21904,0.351463 -0.22224,0.575743 0.006,0.24938 0.0852,0.450628 0.23799,0.603742 0.15283,0.153131 0.34416,0.23188 0.57399,0.236247 0.24821,-0.007 0.44479,-0.09099 0.58975,-0.251997 0.14495,-0.160989 0.21903,-0.356987 0.22224,-0.587992 z m -0.15399,9.099882 0,-7.013909 c 0.002,-0.08107 -0.009,-0.132408 -0.0333,-0.153998 -0.0242,-0.02158 -0.0738,-0.03091 -0.14875,-0.028 l -3.17796,0 c -0.0811,-0.002 -0.13242,0.009 -0.154,0.03325 -0.0216,0.02422 -0.0309,0.0738 -0.028,0.148749 l 0,0.615992 c -0.003,0.07496 0.006,0.124546 0.028,0.148747 0.0216,0.02421 0.0729,0.0353 0.154,0.03325 l 2.37997,0 0,6.21592 c -0.002,0.08108 0.009,0.132416 0.0332,0.153998 0.0242,0.02158 0.0738,0.03092 0.14875,0.028 l 0.61599,0 c 0.075,0.0029 0.12453,-0.0064 0.14875,-0.028 0.0242,-0.02158 0.0353,-0.07291 0.0333,-0.153998 z"/>
    <path d="m 264.74592,75.832002 -2.32397,-4.63394 1.81997,-2.407969 c 0.0271,-0.04987 0.0289,-0.09012 0.005,-0.120749 -0.0236,-0.03062 -0.0674,-0.04637 -0.13125,-0.04725 l -0.82598,0 c -0.0846,-0.0015 -0.13942,0.0085 -0.1645,0.02975 -0.0251,0.0213 -0.0589,0.06272 -0.1015,0.124248 l -2.57597,3.485955 0,-5.767926 c 0.002,-0.08107 -0.009,-0.132405 -0.0333,-0.153998 -0.0242,-0.02157 -0.0738,-0.03091 -0.14875,-0.028 l -0.61599,0 c -0.075,-0.0029 -0.12454,0.0064 -0.14875,0.028 -0.0242,0.02159 -0.0353,0.07293 -0.0333,0.153998 l 0,9.32388 c -0.002,0.08108 0.009,0.132416 0.0333,0.153998 0.0242,0.02158 0.0738,0.03092 0.14875,0.028 l 0.61599,0 c 0.075,0.0029 0.12454,-0.0064 0.14875,-0.028 0.0242,-0.02158 0.0353,-0.07291 0.0333,-0.153998 l 0,-1.931975 1.31598,-1.777977 1.87598,3.737952 c 0.0303,0.06154 0.0607,0.102957 0.091,0.124248 0.0303,0.02129 0.0887,0.03121 0.175,0.02975 l 0.71399,0 c 0.0639,-8.75e-4 0.10761,-0.01663 0.13125,-0.04725 0.0236,-0.03063 0.0219,-0.07087 -0.005,-0.120749 z"/>
  </g>
</svg>
